<svg version="1.1" viewBox="0 0 180 180" fill="none" stroke="none" xmlns="http://www.w3.org/2000/svg">
    <rect width="180" height="180" rx="32" fill="#0a0a0f"/>
    <!-- Row 1 -->
    <rect x="12" y="12" width="36" height="36" fill="#a855f7"/>
    <rect x="54" y="12" width="36" height="36" fill="#a855f7"/>
    <rect x="96" y="12" width="36" height="36" fill="#3a3a48"/>
    <rect x="138" y="12" width="36" height="36" fill="#3a3a48"/>
    <!-- Row 2 -->
    <rect x="12" y="54" width="36" height="36" fill="#06b6d4"/>
    <rect x="54" y="54" width="36" height="36" fill="#a855f7"/>
    <rect x="96" y="54" width="36" height="36" fill="#a855f7"/>
    <rect x="138" y="54" width="36" height="36" fill="#3a3a48"/>
    <!-- Row 3 -->
    <rect x="12" y="96" width="36" height="36" fill="#06b6d4"/>
    <rect x="54" y="96" width="36" height="36" fill="#06b6d4"/>
    <rect x="96" y="96" width="36" height="36" fill="#a855f7"/>
    <rect x="138" y="96" width="36" height="36" fill="#a855f7"/>
    <!-- Row 4 -->
    <rect x="12" y="138" width="36" height="36" fill="#06b6d4"/>
    <rect x="54" y="138" width="36" height="36" fill="#06b6d4"/>
    <rect x="96" y="138" width="36" height="36" fill="#06b6d4"/>
    <rect x="138" y="138" width="36" height="36" fill="#06b6d4"/>
</svg>

